# xmcd
# 
# Track frame offsets:
#     150
#     33676
#     47148
#     60830
#     81782
#     115189
#     128320
#     174108
#     192957
# 
# Disc length: 3035
# 
# Revision: 0
# Processed by: cddbd v1.5.2PL0 Copyright (c) Steve Scherf et al.
# Submitted via: fre:ac v1.0.31
# 
DISCID=660bd909
DTITLE=Teruo Furuya - Honk Yoku disque 3
DYEAR=2016
DGENRE=National Folk
TTITLE0=Oushu-den Tsurunosugomori
TTITLE1=Honshirabe
TTITLE2=Sanya Sugagaki
TTITLE3=Shingetsu
TTITLE4=Mukaidi
TTITLE5=Nezasashirabe
TTITLE6=Shougankenreibo
TTITLE7=Sokkan
TTITLE8=Takiochi
EXTD=Shakuhachi
EXTT0=
EXTT1=
EXTT2=
EXTT3=
EXTT4=
EXTT5=
EXTT6=
EXTT7=
EXTT8=
PLAYORDER=
